# AST/ASF file generated using VICON BodyLanguage
# -----------------------------------------------
:version 1.10
:name VICON
:units
  mass 1.0
  length 0.45
  angle deg
:documentation
   .ast/.asf automatically generated from VICON data using
   VICON BodyBuilder and BodyLanguage model FoxedUp or BRILLIANT.MOD
:root
   order TX TY TZ RX RY RZ
   axis XYZ
   position 0 0 0  
   orientation 0 0 0 
:bonedata
  begin
     id 1 
     name lhipjoint
     direction 0.643272 -0.706573 0.294883 
     length 2.58915 
     axis 0 0 0  XYZ
  end
  begin
     id 2 
     name lfemur
     direction 0.34202 -0.939693 0  
     length 7.06802  
     axis 0 0 20  XYZ
    dof rx ry rz
    limits (-160.0 20.0)
           (-70.0 70.0)
           (-60.0 70.0)
  end
  begin
     id 3 
     name ltibia
     direction 0.34202 -0.939693 0   
     length 7.94147   
     axis 0 0 20   XYZ
    dof rx
    limits (-10.0 170.0)
  end
  begin
     id 4 
     name lfoot
     direction 0.0435058 -0.119531 0.991877   
     length 1.8399   
     axis -90 7.62852e-016 20   XYZ
    dof rx rz
    limits (-45.0 90.0)
           (-70.0 20.0)
  end
  begin
     id 5 
     name ltoes
     direction 1.53505e-011 -4.22157e-011 1   
     length 0.934412   
     axis -90 7.62852e-016 20   XYZ
    dof rx
    limits (-90.0 20.0)
  end
  begin
     id 6 
     name rhipjoint
     direction -0.636801 -0.711547 0.296959   
     length 2.57105  
     axis 0 0 0  XYZ 
  end
  begin
     id 7 
     name rfemur
     direction -0.34202 -0.939693 0   
     length 7.03285   
     axis 0 0 -20   XYZ
    dof rx ry rz
    limits (-160.0 20.0)
           (-70.0 70.0)
           (-70.0 60.0)
  end
  begin
     id 8 
     name rtibia
     direction -0.34202 -0.939693 0   
     length 7.99111   
     axis 0 0 -20   XYZ
    dof rx
    limits (-10.0 170.0)
 end
 begin
     id 9 
     name rfoot
     direction -0.0783088 -0.215152 0.973436   
     length 1.98785  
     axis -90 -7.62852e-016 -20   XYZ
    dof rx rz
    limits (-45.0 90.0)
           (-20.0 70.0)
  end
  begin
     id 10 
     name rtoes
     direction -1.53606e-011 -4.21943e-011 1   
     length 1.001   
     axis -90 -7.62852e-016 -20   XYZ
    dof rx
    limits (-90.0 20.0)
  end
  begin
     id 11 
     name lowerback
     direction 0.00141527 0.998403 -0.0564763   
     length 2.30486   
     axis 0 0 0   XYZ
    dof rx ry rz
    limits (-20.0 45.0)
           (-30.0 30.0)
           (-30.0 30.0)
  end
  begin
     id 12 
     name upperback
     direction 0.0125137 0.999915 0.00361315   
     length 2.30697   
     axis 0 0 0   XYZ
    dof rx ry rz
    limits (-20.0 45.0)
           (-30.0 30.0)
           (-30.0 30.0)
  end
  begin
     id 13 
     name thorax
     direction 0.0136417 0.999471 0.0295116   
     length 2.31005   
     axis 0 0 0   XYZ
    dof rx ry rz
    limits (-20.0 45.0)
           (-30.0 30.0)
           (-30.0 30.0)
  end
  begin
     id 14 
     name lowerneck
     direction 0.0766806 0.997047 0.00422047   
     length 1.68825   
     axis 0 0 0   XYZ
    dof rx ry rz
    limits (-20.0 45.0)
           (-30.0 30.0)
           (-30.0 30.0)
  end
  begin
     id 15 
     name upperneck
     direction -0.143512 0.985106 -0.0947088   
     length 1.69772   
     axis 0 0 0   XYZ
    dof rx ry rz
    limits (-20.0 45.0)
           (-30.0 30.0)
           (-30.0 30.0)
  end
  begin
     id 16
     name head
     direction -0.0539128 0.997849 -0.0372864  
     length 1.71187  
     axis 0 0 0   XYZ
    dof rx ry rz
    limits (-20.0 45.0)
           (-30.0 30.0)
           (-30.0 30.0)
  end
  begin
     id 17 
     name lclavicle
     direction 0.978251 0.207416 -0.00165765  
     length 3.35399  
     axis 0 0 0   XYZ
    dof ry rz
    limits (-20.0 10.0)
           (0.0 20.0)
  end
  begin
     id 18 
     name lhumerus
     direction 1 -4.48966e-011 -1.32191e-028   
     length 5.70706   
     axis 180 -30 -90   XYZ
    dof rx ry rz
    limits (-60.0 90.0)
           (-90.0 90.0)
           (-90.0 90.0)
  end
  begin
     id 19
     name lradius
     direction 1 -4.48976e-011 9.36106e-027   
     length 3.33243   
     axis 180 -30 -90   XYZ
    dof rx
    limits (-10.0 170.0)
  end
  begin
     id 20
     name lwrist
     direction 1 -4.48976e-011 1.1555e-026   
     length 1.66621   
     axis -5.7412e-015 90 90   XYZ
    dof ry
    limits (-180.0 0.0)
 end
  begin
     id 21 
     name lhand
     direction 1 -4.48939e-011 2.31113e-026   
     length 0.792687   
     axis -1.47463e-014 90 90   XYZ
    dof rx rz
    limits (-90.0 90.0)
           (-45.0 45.0)
  end
  begin
     id 22 
     name lfingers
     direction 1 -4.48866e-011 4.62274e-026   
     length 0.639085   
     axis -2.94925e-014 90 90   XYZ
    dof rx
    limits (0.0 90.0)
  end
  begin
     id 23
     name lthumb
     direction 0.707107 -6.34847e-011 0.707107   
     length 0.917601   
     axis -90 45 -6.68868e-015   XYZ
    dof rx rz
    limits (-45.0 45.0)
           (-45.0 45.0)
  end
  begin
     id 24 
     name rclavicle
     direction -0.981813 0.185514 0.0403428   
     length 3.47271  
     axis 0 0 0   XYZ 
    dof ry rz
    limits (-10.0 20.0)
           (-20.0 0.0)
  end
  begin
     id 25 
     name rhumerus
     direction -1 -4.48972e-011 -6.58544e-029  
     length 5.88176   
     axis 180 30 90   XYZ
    dof rx ry rz
    limits (-90.0 60.0)
           (-90.0 90.0)
           (-90.0 90.0)
  end
  begin
     id 26 
     name rradius
     direction -1 -4.48964e-011 8.36306e-027   
     length 3.28156   
     axis 180 30 90   XYZ
    dof rx
    limits (-10.0 170.0)
  end
  begin
     id 27 
     name rwrist
     direction -1 -4.48903e-011 1.15562e-026   
     length 1.64078   
     axis -5.7412e-015 -90 -90   XYZ
    dof ry
    limits (-180.0 0.0)
  end
  begin
     id 28
     name rhand
     direction -1 -4.49055e-011 2.31074e-026   
     length 0.863125   
     axis -1.47463e-014 -90 -90   XYZ
    dof rx rz
    limits (-90.0 90.0)
           (-45.0 45.0)
  end
  begin
     id 29
     name rfingers
     direction -1 -4.48994e-011 4.62188e-026   
     length 0.695873   
     axis -2.94925e-014 -90 -90   XYZ
    dof rx
    limits (0.0 90.0)
  end
  begin
     id 30
     name rthumb
     direction -0.707107 -6.35058e-011 0.707107   
     length 0.999139   
     axis -90 -45 6.68868e-015   XYZ
    dof rx rz
    limits (-45.0 45.0)
           (-45.0 45.0)
  end
:hierarchy
  begin
    root lhipjoint rhipjoint lowerback
    lhipjoint lfemur
    lfemur ltibia
    ltibia lfoot
    lfoot ltoes
    rhipjoint rfemur
    rfemur rtibia
    rtibia rfoot
    rfoot rtoes
    lowerback upperback
    upperback thorax
    thorax lowerneck lclavicle rclavicle
    lowerneck upperneck
    upperneck head
    lclavicle lhumerus
    lhumerus lradius
    lradius lwrist
    lwrist lhand lthumb
    lhand lfingers
    rclavicle rhumerus
    rhumerus rradius
    rradius rwrist
    rwrist rhand rthumb
    rhand rfingers
  end

#!OML:ASF \\Waltz\H\Terrain\Patient Classification 1\Animal2\Wednesday\Animal2.ASF
:FULLY-SPECIFIED
:DEGREES
273
root 0.870001 17.0274 -22.1378 6.3431 -14.8536 -18.4992
lowerback 4.23504 -1.88207 4.59191
upperback -1.36781 -2.07437 5.97159
thorax -3.74162 -1.08324 3.78109
lowerneck -1.11217 -7.68654 9.37808
upperneck 1.5904 -10.3346 -6.93572
head -0.217534 -5.17138 -3.83711
rclavicle -3.81449e-014 5.725e-014
rhumerus 5.83944 39.2148 -74.8555
rradius 91.2959
rwrist -11.7923
rhand -17.0907 23.9579
rfingers 7.12502
rthumb 9.14783 -5.82368
lclavicle -3.81449e-014 5.725e-014
lhumerus 25.6949 20.2588 15.3023
lradius 90.4322
lwrist 0.121807
lhand -51.7615 10.8019
lfingers 7.12502
lthumb -24.2789 39.2846
rfemur -5.36577 -2.98664 37.7545
rtibia 23.7985
rfoot -8.32609 32.2036
rtoes 51.0706
lfemur -27.8129 -0.370625 4.20585
ltibia 60.9577
lfoot -25.3526 4.34038
ltoes -17.9987
274
root 0.891575 17.0264 -22.1014 6.43897 -15.0451 -18.4838
lowerback 3.96194 -1.97999 4.83247
upperback -1.34258 -2.22007 5.92542
thorax -3.56765 -1.16106 3.59557
lowerneck -0.974199 -7.62573 9.21432
upperneck 1.5803 -10.2393 -6.95817
head -0.228874 -5.12265 -3.81033
rclavicle -5.5697e-014 2.54444e-014
rhumerus 5.79195 39.4789 -75.1749
rradius 91.2059
rwrist -11.975
rhand -18.1374 24.1419
rfingers 7.12502
rthumb 8.13773 -5.68136
lclavicle -5.5697e-014 2.54444e-014
lhumerus 25.4281 20.2872 15.043
lradius 90.1044
lwrist -0.0813341
lhand -51.7664 11.438
lfingers 7.12502
lthumb -24.2835 39.92
rfemur -5.29021 -2.5094 37.6528
rtibia 23.8161
rfoot -9.37814 31.8959
rtoes 50.5967
lfemur -27.6658 -0.537613 4.27019
ltibia 60.2916
lfoot -25.5456 5.03141
ltoes -17.8903
275
root 0.912451 17.0171 -22.0655 6.5996 -15.1652 -18.6482
lowerback 3.7137 -2.00001 5.1132
upperback -1.24839 -2.26153 5.98539
thorax -3.33728 -1.1857 3.49003
lowerneck -1.57076 -7.63024 9.32524
upperneck 1.94054 -10.2863 -7.22928
head -0.033695 -5.15399 -3.96297
rclavicle 5.16654e-014 -3.65764e-014
rhumerus 5.91126 39.5067 -75.2567
rradius 91.1009
rwrist -12.153
rhand -19.0219 24.0756
rfingers 7.12502
rthumb 7.28403 -5.77907
lclavicle 5.16654e-014 -3.65764e-014
lhumerus 25.4657 20.3492 15.0467
lradius 89.6023
lwrist -0.176211
lhand -52.5059 10.8233
lfingers 7.12502
lthumb -24.9923 39.2086
rfemur -5.33617 -2.16929 37.7644
rtibia 23.8587
rfoot -10.0975 31.6318
rtoes 50.4296
lfemur -27.5839 -0.585645 4.5717
ltibia 59.6573
lfoot -25.8254 5.20992
ltoes -18.5641
276
root 0.93679 17.0053 -22.026 6.65965 -15.2485 -18.7291
lowerback 3.51993 -1.98078 5.42311
upperback -1.08823 -2.25331 5.91107
thorax -3.07666 -1.18509 3.22444
lowerneck -2.51657 -7.54902 9.7205
upperneck 2.57903 -10.2473 -7.62316
head 0.300093 -5.14522 -4.24348
rclavicle 3.39308e-014 1.74931e-014
rhumerus 6.12597 39.3017 -75.4047
rradius 90.9433
rwrist -12.6646
rhand -19.9549 24.1452
rfingers 7.12502
rthumb 6.38335 -5.73866
lclavicle 3.39308e-014 1.74931e-014
lhumerus 25.8489 20.4887 15.1731
lradius 89.1388
lwrist -0.298811
lhand -53.0277 10.4548
lfingers 7.12502
lthumb -25.4923 38.7697
rfemur -5.31667 -2.01101 37.7595
rtibia 23.9117
rfoot -10.5427 31.47
rtoes 50.297
lfemur -27.4177 -0.728164 4.75978
ltibia 59.0219
lfoot -26.0806 4.97596
ltoes -18.4324
277
root 0.962081 16.9992 -21.9862 6.68227 -15.3805 -18.7095
lowerback 3.53252 -1.96682 5.52089
upperback -1.10922 -2.2271 5.91601
thorax -3.1098 -1.17431 3.17498
lowerneck -2.774 -7.43046 9.945
upperneck 2.8537 -10.1049 -8.02613
head 0.413999 -5.07962 -4.45317
rclavicle 2.08425e-014 -5.32743e-014
rhumerus 6.01044 39.2722 -75.6544
rradius 90.8503
rwrist -13.1482
rhand -20.9012 24.0099
rfingers 7.12502
rthumb 5.46976 -5.89948
lclavicle 2.08425e-014 -5.32743e-014
lhumerus 25.9186 20.4692 15.3113
lradius 88.7101
lwrist -0.428882
lhand -52.8036 10.532
lfingers 7.12502
lthumb -25.2776 38.8773
rfemur -5.24127 -1.51208 37.6776
rtibia 23.972
rfoot -10.8486 30.9537
rtoes 49.9642
lfemur -27.2308 -0.931477 4.82407
ltibia 58.3521
lfoot -26.1888 4.58479
ltoes -17.8683
278
root 0.988056 16.9902 -21.9503 6.77304 -15.4 -18.7662
lowerback 3.76704 -1.94703 5.41336
upperback -1.35917 -2.15709 6.2032
thorax -3.48935 -1.14045 3.5516
lowerneck -2.16588 -7.4011 9.76505
upperneck 2.43279 -10.0181 -8.23055
head 0.173928 -5.03445 -4.44757
rclavicle 2.00835e-014 -2.42517e-014
rhumerus 5.52623 39.3141 -75.7467
rradius 90.8294
rwrist -13.6992
rhand -21.9712 24.2067
rfingers 7.12502
rthumb 4.43654 -5.72678
lclavicle 2.00835e-014 -2.42517e-014
lhumerus 25.6496 20.1774 15.616
lradius 88.206
lwrist -0.580202
lhand -53.0182 10.6305
lfingers 7.12502
lthumb -25.4832 38.9466
rfemur -5.21426 -0.792334 37.7271
rtibia 24.0168
rfoot -11.3071 30.2301
rtoes 49.4657
lfemur -27.2031 -1.20118 4.98919
ltibia 57.6901
lfoot -26.1709 4.41722
ltoes -19.1456
